<svg width="216" height="72" viewBox="0 0 216 72" fill="none" xmlns="http://www.w3.org/2000/svg">
<rect width="216" height="71" rx="7" fill="#0094FF"/>
<g filter="url(#filter0_bii_2_22)">
<rect y="1" width="216" height="71" rx="7" fill="#0094FF" fill-opacity="0.1"/>
</g>
<g filter="url(#filter1_b_2_22)">
<rect width="216" height="71" rx="7" fill="#0094FF" fill-opacity="0.1"/>
<rect x="1.435" y="1.435" width="213.13" height="68.13" rx="5.565" stroke="white" stroke-opacity="0.2" stroke-width="2.87"/>
</g>
<path d="M44.8333 36.5V51.9167H20.1667V36.5" stroke="white" stroke-width="2" stroke-linecap="round" stroke-linejoin="round"/>
<path d="M47.9167 28.7917H17.0833V36.5H47.9167V28.7917Z" stroke="white" stroke-width="2" stroke-linecap="round" stroke-linejoin="round"/>
<path d="M32.5 51.9167V28.7917" stroke="white" stroke-width="2" stroke-linecap="round" stroke-linejoin="round"/>
<path d="M32.5 28.7917H25.5625C24.5403 28.7917 23.56 28.3856 22.8372 27.6628C22.1144 26.94 21.7083 25.9597 21.7083 24.9375C21.7083 23.9153 22.1144 22.935 22.8372 22.2122C23.56 21.4894 24.5403 21.0833 25.5625 21.0833C30.9583 21.0833 32.5 28.7917 32.5 28.7917Z" stroke="white" stroke-width="2" stroke-linecap="round" stroke-linejoin="round"/>
<path d="M32.5 28.7917H39.4375C40.4597 28.7917 41.44 28.3856 42.1628 27.6628C42.8856 26.94 43.2917 25.9597 43.2917 24.9375C43.2917 23.9153 42.8856 22.935 42.1628 22.2122C41.44 21.4894 40.4597 21.0833 39.4375 21.0833C34.0417 21.0833 32.5 28.7917 32.5 28.7917Z" stroke="white" stroke-width="2" stroke-linecap="round" stroke-linejoin="round"/>
<path d="M139.184 42H134.695V27.4545H139.382C140.793 27.4545 142.001 27.7457 143.005 28.3281C144.008 28.9058 144.778 29.7367 145.313 30.821C145.848 31.9006 146.115 33.1932 146.115 34.6989C146.115 36.214 145.846 37.5185 145.306 38.6122C144.766 39.7012 143.98 40.5393 142.948 41.1264C141.916 41.7088 140.661 42 139.184 42ZM136.456 40.4375H139.07C140.273 40.4375 141.269 40.2055 142.06 39.7415C142.851 39.2775 143.44 38.617 143.828 37.7599C144.217 36.9029 144.411 35.8826 144.411 34.6989C144.411 33.5246 144.219 32.5137 143.836 31.6662C143.452 30.8139 142.879 30.1605 142.117 29.706C141.355 29.2467 140.405 29.017 139.269 29.017H136.456V40.4375ZM153.275 42.2273C152.29 42.2273 151.426 41.9929 150.682 41.5241C149.944 41.0554 149.366 40.3996 148.949 39.5568C148.537 38.714 148.331 37.7292 148.331 36.6023C148.331 35.4659 148.537 34.474 148.949 33.6264C149.366 32.7789 149.944 32.1207 150.682 31.652C151.426 31.1832 152.29 30.9489 153.275 30.9489C154.259 30.9489 155.121 31.1832 155.86 31.652C156.603 32.1207 157.181 32.7789 157.593 33.6264C158.009 34.474 158.218 35.4659 158.218 36.6023C158.218 37.7292 158.009 38.714 157.593 39.5568C157.181 40.3996 156.603 41.0554 155.86 41.5241C155.121 41.9929 154.259 42.2273 153.275 42.2273ZM153.275 40.7216C154.023 40.7216 154.638 40.5298 155.121 40.1463C155.604 39.7628 155.962 39.2585 156.194 38.6335C156.426 38.0085 156.542 37.3314 156.542 36.6023C156.542 35.8731 156.426 35.1937 156.194 34.5639C155.962 33.9342 155.604 33.4252 155.121 33.0369C154.638 32.6487 154.023 32.4545 153.275 32.4545C152.526 32.4545 151.911 32.6487 151.428 33.0369C150.945 33.4252 150.587 33.9342 150.355 34.5639C150.123 35.1937 150.007 35.8731 150.007 36.6023C150.007 37.3314 150.123 38.0085 150.355 38.6335C150.587 39.2585 150.945 39.7628 151.428 40.1463C151.911 40.5298 152.526 40.7216 153.275 40.7216ZM162.452 35.4375V42H160.776V31.0909H162.396V32.7955H162.538C162.793 32.2415 163.182 31.7964 163.702 31.4602C164.223 31.1193 164.896 30.9489 165.719 30.9489C166.458 30.9489 167.104 31.1004 167.658 31.4034C168.212 31.7017 168.643 32.1562 168.951 32.767C169.259 33.3731 169.413 34.1402 169.413 35.0682V42H167.737V35.1818C167.737 34.3248 167.514 33.6572 167.069 33.179C166.624 32.696 166.013 32.4545 165.237 32.4545C164.701 32.4545 164.223 32.5705 163.802 32.8026C163.385 33.0346 163.056 33.3731 162.815 33.8182C162.573 34.2633 162.452 34.803 162.452 35.4375ZM175.686 42.2557C174.994 42.2557 174.367 42.1255 173.804 41.8651C173.24 41.5999 172.793 41.2188 172.461 40.7216C172.13 40.2197 171.964 39.6136 171.964 38.9034C171.964 38.2784 172.087 37.7718 172.333 37.3835C172.58 36.9905 172.909 36.6828 173.321 36.4602C173.733 36.2377 174.187 36.072 174.684 35.9631C175.186 35.8494 175.69 35.7595 176.197 35.6932C176.86 35.608 177.397 35.544 177.809 35.5014C178.226 35.4541 178.529 35.3759 178.718 35.267C178.913 35.1581 179.01 34.9687 179.01 34.6989V34.642C179.01 33.9413 178.818 33.3968 178.434 33.0085C178.056 32.6203 177.48 32.4261 176.708 32.4261C175.908 32.4261 175.281 32.6013 174.826 32.9517C174.372 33.3021 174.052 33.6761 173.868 34.0739L172.277 33.5057C172.561 32.8428 172.94 32.3267 173.413 31.9574C173.891 31.5833 174.412 31.3229 174.975 31.1761C175.544 31.0246 176.102 30.9489 176.652 30.9489C177.002 30.9489 177.404 30.9915 177.859 31.0767C178.318 31.1572 178.761 31.3253 179.187 31.581C179.618 31.8366 179.975 32.2225 180.26 32.7386C180.544 33.2547 180.686 33.946 180.686 34.8125V42H179.01V40.5227H178.924C178.811 40.7595 178.621 41.0128 178.356 41.2827C178.091 41.5526 177.738 41.7822 177.298 41.9716C176.858 42.161 176.32 42.2557 175.686 42.2557ZM175.941 40.75C176.604 40.75 177.163 40.6198 177.618 40.3594C178.077 40.099 178.422 39.7628 178.654 39.3509C178.891 38.9389 179.01 38.5057 179.01 38.0511V36.517C178.939 36.6023 178.782 36.6804 178.541 36.7514C178.304 36.8177 178.029 36.8769 177.717 36.929C177.409 36.9763 177.109 37.0189 176.815 37.0568C176.526 37.09 176.292 37.1184 176.112 37.142C175.676 37.1989 175.269 37.2912 174.89 37.419C174.516 37.5421 174.213 37.7292 173.981 37.9801C173.754 38.2263 173.64 38.5625 173.64 38.9886C173.64 39.571 173.856 40.0114 174.287 40.3097C174.722 40.6032 175.274 40.75 175.941 40.75ZM188.489 31.0909V32.5114H182.836V31.0909H188.489ZM184.484 28.4773H186.16V38.875C186.16 39.3485 186.228 39.7036 186.366 39.9403C186.508 40.1723 186.688 40.3286 186.906 40.4091C187.128 40.4848 187.362 40.5227 187.609 40.5227C187.793 40.5227 187.945 40.5133 188.063 40.4943C188.182 40.4706 188.276 40.4517 188.347 40.4375L188.688 41.9432C188.575 41.9858 188.416 42.0284 188.212 42.071C188.009 42.1184 187.751 42.142 187.438 42.142C186.965 42.142 186.501 42.0402 186.046 41.8366C185.596 41.633 185.222 41.3229 184.924 40.9062C184.63 40.4896 184.484 39.964 184.484 39.3295V28.4773ZM195.467 42.2273C194.416 42.2273 193.509 41.9953 192.747 41.5312C191.99 41.0625 191.405 40.4091 190.993 39.571C190.586 38.7282 190.382 37.7481 190.382 36.6307C190.382 35.5133 190.586 34.5284 190.993 33.6761C191.405 32.8191 191.978 32.1515 192.712 31.6733C193.45 31.1903 194.312 30.9489 195.297 30.9489C195.865 30.9489 196.426 31.0436 196.98 31.233C197.534 31.4223 198.038 31.7301 198.493 32.1562C198.947 32.5777 199.31 33.1364 199.58 33.8324C199.849 34.5284 199.984 35.3854 199.984 36.4034V37.1136H191.575V35.6648H198.28C198.28 35.0492 198.157 34.5 197.911 34.017C197.669 33.5341 197.323 33.1529 196.874 32.8736C196.429 32.5942 195.903 32.4545 195.297 32.4545C194.629 32.4545 194.052 32.6203 193.564 32.9517C193.081 33.2784 192.709 33.7045 192.449 34.2301C192.188 34.7557 192.058 35.3191 192.058 35.9205V36.8864C192.058 37.7102 192.2 38.4086 192.484 38.9815C192.773 39.5497 193.173 39.983 193.685 40.2812C194.196 40.5748 194.79 40.7216 195.467 40.7216C195.908 40.7216 196.305 40.66 196.661 40.5369C197.02 40.4091 197.33 40.2197 197.591 39.9688C197.851 39.7131 198.053 39.3958 198.195 39.017L199.814 39.4716C199.643 40.0208 199.357 40.5038 198.955 40.9205C198.552 41.3324 198.055 41.6544 197.463 41.8864C196.871 42.1136 196.206 42.2273 195.467 42.2273Z" fill="white"/>
<defs>
<filter id="filter0_bii_2_22" x="-19.1333" y="-18.1333" width="254.267" height="109.267" filterUnits="userSpaceOnUse" color-interpolation-filters="sRGB">
<feFlood flood-opacity="0" result="BackgroundImageFix"/>
<feGaussianBlur in="BackgroundImage" stdDeviation="9.56667"/>
<feComposite in2="SourceAlpha" operator="in" result="effect1_backgroundBlur_2_22"/>
<feBlend mode="normal" in="SourceGraphic" in2="effect1_backgroundBlur_2_22" result="shape"/>
<feColorMatrix in="SourceAlpha" type="matrix" values="0 0 0 0 0 0 0 0 0 0 0 0 0 0 0 0 0 0 127 0" result="hardAlpha"/>
<feOffset dx="-9.56667" dy="9.56667"/>
<feGaussianBlur stdDeviation="4.78333"/>
<feComposite in2="hardAlpha" operator="arithmetic" k2="-1" k3="1"/>
<feColorMatrix type="matrix" values="0 0 0 0 1 0 0 0 0 1 0 0 0 0 1 0 0 0 0.1 0"/>
<feBlend mode="normal" in2="shape" result="effect2_innerShadow_2_22"/>
<feColorMatrix in="SourceAlpha" type="matrix" values="0 0 0 0 0 0 0 0 0 0 0 0 0 0 0 0 0 0 127 0" result="hardAlpha"/>
<feOffset dx="9.56667" dy="-9.56667"/>
<feGaussianBlur stdDeviation="4.78333"/>
<feComposite in2="hardAlpha" operator="arithmetic" k2="-1" k3="1"/>
<feColorMatrix type="matrix" values="0 0 0 0 0.120901 0 0 0 0 0.592167 0 0 0 0 0.365959 0 0 0 0.1 0"/>
<feBlend mode="normal" in2="effect2_innerShadow_2_22" result="effect3_innerShadow_2_22"/>
</filter>
<filter id="filter1_b_2_22" x="-19.1333" y="-19.1333" width="254.267" height="109.267" filterUnits="userSpaceOnUse" color-interpolation-filters="sRGB">
<feFlood flood-opacity="0" result="BackgroundImageFix"/>
<feGaussianBlur in="BackgroundImage" stdDeviation="9.56667"/>
<feComposite in2="SourceAlpha" operator="in" result="effect1_backgroundBlur_2_22"/>
<feBlend mode="normal" in="SourceGraphic" in2="effect1_backgroundBlur_2_22" result="shape"/>
</filter>
</defs>
</svg>
