<svg width="216" height="72" viewBox="0 0 216 72" fill="none" xmlns="http://www.w3.org/2000/svg">
<rect width="216" height="71" rx="7" fill="#29C77B"/>
<g filter="url(#filter0_bii_2_62)">
<rect y="1" width="216" height="71" rx="7" fill="#29C77B" fill-opacity="0.1"/>
</g>
<g filter="url(#filter1_b_2_62)">
<rect width="216" height="71" rx="7" fill="#29C77B" fill-opacity="0.1"/>
<rect x="1.435" y="1.435" width="213.13" height="68.13" rx="5.565" stroke="white" stroke-opacity="0.2" stroke-width="2.87"/>
</g>
<path d="M32.5 50.9167C41.0144 50.9167 47.9167 44.0144 47.9167 35.5C47.9167 26.9856 41.0144 20.0833 32.5 20.0833C23.9856 20.0833 17.0833 26.9856 17.0833 35.5C17.0833 44.0144 23.9856 50.9167 32.5 50.9167Z" stroke="white" stroke-width="2" stroke-linecap="round" stroke-linejoin="round"/>
<path d="M17.0833 35.5H47.9167" stroke="white" stroke-width="2" stroke-linecap="round" stroke-linejoin="round"/>
<path d="M32.5 20.0833C36.3562 24.305 38.5476 29.7836 38.6667 35.5C38.5476 41.2165 36.3562 46.6951 32.5 50.9167C28.6439 46.6951 26.4524 41.2165 26.3333 35.5C26.4524 29.7836 28.6439 24.305 32.5 20.0833V20.0833Z" stroke="white" stroke-width="2" stroke-linecap="round" stroke-linejoin="round"/>
<path d="M122.358 34.7273C122.358 36.2614 122.081 37.5871 121.527 38.7045C120.973 39.822 120.213 40.6837 119.248 41.2898C118.282 41.8958 117.178 42.1989 115.938 42.1989C114.697 42.1989 113.594 41.8958 112.628 41.2898C111.662 40.6837 110.902 39.822 110.348 38.7045C109.794 37.5871 109.517 36.2614 109.517 34.7273C109.517 33.1932 109.794 31.8674 110.348 30.75C110.902 29.6326 111.662 28.7708 112.628 28.1648C113.594 27.5587 114.697 27.2557 115.938 27.2557C117.178 27.2557 118.282 27.5587 119.248 28.1648C120.213 28.7708 120.973 29.6326 121.527 30.75C122.081 31.8674 122.358 33.1932 122.358 34.7273ZM120.654 34.7273C120.654 33.4678 120.443 32.4048 120.022 31.5384C119.605 30.6719 119.039 30.0161 118.324 29.571C117.614 29.1259 116.819 28.9034 115.938 28.9034C115.057 28.9034 114.259 29.1259 113.544 29.571C112.834 30.0161 112.268 30.6719 111.847 31.5384C111.43 32.4048 111.222 33.4678 111.222 34.7273C111.222 35.9867 111.43 37.0497 111.847 37.9162C112.268 38.7827 112.834 39.4384 113.544 39.8835C114.259 40.3286 115.057 40.5511 115.938 40.5511C116.819 40.5511 117.614 40.3286 118.324 39.8835C119.039 39.4384 119.605 38.7827 120.022 37.9162C120.443 37.0497 120.654 35.9867 120.654 34.7273ZM125.093 46.0909V31.0909H126.712V32.8239H126.911C127.034 32.6345 127.204 32.393 127.422 32.0994C127.645 31.8011 127.962 31.536 128.374 31.304C128.791 31.0672 129.354 30.9489 130.064 30.9489C130.983 30.9489 131.792 31.1785 132.493 31.6378C133.194 32.0971 133.741 32.7481 134.134 33.5909C134.527 34.4337 134.723 35.428 134.723 36.5739C134.723 37.7292 134.527 38.7306 134.134 39.5781C133.741 40.4209 133.196 41.0743 132.5 41.5384C131.804 41.9976 131.002 42.2273 130.093 42.2273C129.392 42.2273 128.831 42.1113 128.409 41.8793C127.988 41.6425 127.664 41.375 127.436 41.0767C127.209 40.7737 127.034 40.5227 126.911 40.3239H126.769V46.0909H125.093ZM126.74 36.5455C126.74 37.3693 126.861 38.0961 127.103 38.7259C127.344 39.3509 127.697 39.8409 128.161 40.196C128.625 40.5464 129.193 40.7216 129.865 40.7216C130.566 40.7216 131.151 40.5369 131.62 40.1676C132.093 39.7936 132.448 39.2917 132.685 38.6619C132.926 38.0275 133.047 37.322 133.047 36.5455C133.047 35.7784 132.929 35.0871 132.692 34.4716C132.46 33.8513 132.107 33.3613 131.634 33.0014C131.165 32.6368 130.576 32.4545 129.865 32.4545C129.184 32.4545 128.611 32.6274 128.147 32.973C127.683 33.3139 127.332 33.7921 127.096 34.4077C126.859 35.0185 126.74 35.7311 126.74 36.5455ZM141.854 42.2273C140.803 42.2273 139.896 41.9953 139.134 41.5312C138.376 41.0625 137.792 40.4091 137.38 39.571C136.972 38.7282 136.769 37.7481 136.769 36.6307C136.769 35.5133 136.972 34.5284 137.38 33.6761C137.792 32.8191 138.364 32.1515 139.098 31.6733C139.837 31.1903 140.699 30.9489 141.684 30.9489C142.252 30.9489 142.813 31.0436 143.367 31.233C143.921 31.4223 144.425 31.7301 144.88 32.1562C145.334 32.5777 145.696 33.1364 145.966 33.8324C146.236 34.5284 146.371 35.3854 146.371 36.4034V37.1136H137.962V35.6648H144.667C144.667 35.0492 144.543 34.5 144.297 34.017C144.056 33.5341 143.71 33.1529 143.26 32.8736C142.815 32.5942 142.29 32.4545 141.684 32.4545C141.016 32.4545 140.438 32.6203 139.951 32.9517C139.468 33.2784 139.096 33.7045 138.836 34.2301C138.575 34.7557 138.445 35.3191 138.445 35.9205V36.8864C138.445 37.7102 138.587 38.4086 138.871 38.9815C139.16 39.5497 139.56 39.983 140.071 40.2812C140.583 40.5748 141.177 40.7216 141.854 40.7216C142.294 40.7216 142.692 40.66 143.047 40.5369C143.407 40.4091 143.717 40.2197 143.978 39.9688C144.238 39.7131 144.439 39.3958 144.581 39.017L146.201 39.4716C146.03 40.0208 145.744 40.5038 145.341 40.9205C144.939 41.3324 144.442 41.6544 143.85 41.8864C143.258 42.1136 142.593 42.2273 141.854 42.2273ZM150.597 35.4375V42H148.921V31.0909H150.54V32.7955H150.682C150.938 32.2415 151.326 31.7964 151.847 31.4602C152.368 31.1193 153.04 30.9489 153.864 30.9489C154.603 30.9489 155.249 31.1004 155.803 31.4034C156.357 31.7017 156.788 32.1562 157.096 32.767C157.403 33.3731 157.557 34.1402 157.557 35.0682V42H155.881V35.1818C155.881 34.3248 155.658 33.6572 155.213 33.179C154.768 32.696 154.158 32.4545 153.381 32.4545C152.846 32.4545 152.368 32.5705 151.946 32.8026C151.53 33.0346 151.201 33.3731 150.959 33.8182C150.718 34.2633 150.597 34.803 150.597 35.4375ZM174.427 31.0909C174.342 30.3712 173.996 29.8125 173.39 29.4148C172.784 29.017 172.04 28.8182 171.16 28.8182C170.516 28.8182 169.952 28.9223 169.469 29.1307C168.991 29.339 168.617 29.6255 168.347 29.9901C168.082 30.3546 167.95 30.7689 167.95 31.233C167.95 31.6212 168.042 31.955 168.227 32.2344C168.416 32.509 168.657 32.7386 168.951 32.9233C169.245 33.1032 169.552 33.2524 169.874 33.3707C170.196 33.4844 170.492 33.5767 170.762 33.6477L172.239 34.0455C172.618 34.1449 173.04 34.2822 173.504 34.4574C173.972 34.6326 174.42 34.8717 174.846 35.1747C175.277 35.473 175.632 35.8565 175.911 36.3253C176.191 36.794 176.33 37.3693 176.33 38.0511C176.33 38.8371 176.124 39.5473 175.712 40.1818C175.305 40.8163 174.709 41.3205 173.923 41.6946C173.141 42.0687 172.192 42.2557 171.075 42.2557C170.033 42.2557 169.131 42.0876 168.369 41.7514C167.611 41.4152 167.014 40.9465 166.579 40.3452C166.148 39.7438 165.904 39.0455 165.847 38.25H167.665C167.713 38.7992 167.897 39.2538 168.219 39.6136C168.546 39.9687 168.958 40.2339 169.455 40.4091C169.957 40.5795 170.497 40.6648 171.075 40.6648C171.747 40.6648 172.351 40.5559 172.886 40.3381C173.421 40.1155 173.844 39.8078 174.157 39.4148C174.469 39.017 174.626 38.553 174.626 38.0227C174.626 37.5398 174.491 37.1468 174.221 36.8438C173.951 36.5407 173.596 36.2945 173.156 36.1051C172.715 35.9157 172.239 35.75 171.728 35.608L169.938 35.0966C168.802 34.7699 167.902 34.3035 167.239 33.6974C166.576 33.0914 166.245 32.2983 166.245 31.3182C166.245 30.5038 166.465 29.7936 166.906 29.1875C167.351 28.5767 167.947 28.1032 168.695 27.767C169.448 27.4261 170.289 27.2557 171.217 27.2557C172.154 27.2557 172.987 27.4238 173.717 27.7599C174.446 28.0914 175.023 28.5459 175.45 29.1236C175.88 29.7012 176.108 30.357 176.131 31.0909H174.427ZM178.999 42V31.0909H180.675V42H178.999ZM179.851 29.2727C179.525 29.2727 179.243 29.1615 179.006 28.9389C178.774 28.7164 178.658 28.4489 178.658 28.1364C178.658 27.8239 178.774 27.5563 179.006 27.3338C179.243 27.1113 179.525 27 179.851 27C180.178 27 180.457 27.1113 180.689 27.3338C180.926 27.5563 181.044 27.8239 181.044 28.1364C181.044 28.4489 180.926 28.7164 180.689 28.9389C180.457 29.1615 180.178 29.2727 179.851 29.2727ZM188.489 31.0909V32.5114H182.836V31.0909H188.489ZM184.484 28.4773H186.16V38.875C186.16 39.3485 186.228 39.7036 186.366 39.9403C186.508 40.1723 186.688 40.3286 186.906 40.4091C187.128 40.4848 187.362 40.5227 187.609 40.5227C187.793 40.5227 187.945 40.5133 188.063 40.4943C188.182 40.4706 188.276 40.4517 188.347 40.4375L188.688 41.9432C188.575 41.9858 188.416 42.0284 188.212 42.071C188.009 42.1184 187.751 42.142 187.438 42.142C186.965 42.142 186.501 42.0402 186.046 41.8366C185.596 41.633 185.222 41.3229 184.924 40.9062C184.63 40.4896 184.484 39.964 184.484 39.3295V28.4773ZM195.467 42.2273C194.416 42.2273 193.509 41.9953 192.747 41.5312C191.99 41.0625 191.405 40.4091 190.993 39.571C190.586 38.7282 190.382 37.7481 190.382 36.6307C190.382 35.5133 190.586 34.5284 190.993 33.6761C191.405 32.8191 191.978 32.1515 192.712 31.6733C193.45 31.1903 194.312 30.9489 195.297 30.9489C195.865 30.9489 196.426 31.0436 196.98 31.233C197.534 31.4223 198.038 31.7301 198.493 32.1562C198.947 32.5777 199.31 33.1364 199.58 33.8324C199.849 34.5284 199.984 35.3854 199.984 36.4034V37.1136H191.575V35.6648H198.28C198.28 35.0492 198.157 34.5 197.911 34.017C197.669 33.5341 197.323 33.1529 196.874 32.8736C196.429 32.5942 195.903 32.4545 195.297 32.4545C194.629 32.4545 194.052 32.6203 193.564 32.9517C193.081 33.2784 192.709 33.7045 192.449 34.2301C192.188 34.7557 192.058 35.3191 192.058 35.9205V36.8864C192.058 37.7102 192.2 38.4086 192.484 38.9815C192.773 39.5497 193.173 39.983 193.685 40.2812C194.196 40.5748 194.79 40.7216 195.467 40.7216C195.908 40.7216 196.305 40.66 196.661 40.5369C197.02 40.4091 197.33 40.2197 197.591 39.9688C197.851 39.7131 198.053 39.3958 198.195 39.017L199.814 39.4716C199.643 40.0208 199.357 40.5038 198.955 40.9205C198.552 41.3324 198.055 41.6544 197.463 41.8864C196.871 42.1136 196.206 42.2273 195.467 42.2273Z" fill="white"/>
<defs>
<filter id="filter0_bii_2_62" x="-19.1333" y="-18.1333" width="254.267" height="109.267" filterUnits="userSpaceOnUse" color-interpolation-filters="sRGB">
<feFlood flood-opacity="0" result="BackgroundImageFix"/>
<feGaussianBlur in="BackgroundImage" stdDeviation="9.56667"/>
<feComposite in2="SourceAlpha" operator="in" result="effect1_backgroundBlur_2_62"/>
<feBlend mode="normal" in="SourceGraphic" in2="effect1_backgroundBlur_2_62" result="shape"/>
<feColorMatrix in="SourceAlpha" type="matrix" values="0 0 0 0 0 0 0 0 0 0 0 0 0 0 0 0 0 0 127 0" result="hardAlpha"/>
<feOffset dx="-9.56667" dy="9.56667"/>
<feGaussianBlur stdDeviation="4.78333"/>
<feComposite in2="hardAlpha" operator="arithmetic" k2="-1" k3="1"/>
<feColorMatrix type="matrix" values="0 0 0 0 1 0 0 0 0 1 0 0 0 0 1 0 0 0 0.1 0"/>
<feBlend mode="normal" in2="shape" result="effect2_innerShadow_2_62"/>
<feColorMatrix in="SourceAlpha" type="matrix" values="0 0 0 0 0 0 0 0 0 0 0 0 0 0 0 0 0 0 127 0" result="hardAlpha"/>
<feOffset dx="9.56667" dy="-9.56667"/>
<feGaussianBlur stdDeviation="4.78333"/>
<feComposite in2="hardAlpha" operator="arithmetic" k2="-1" k3="1"/>
<feColorMatrix type="matrix" values="0 0 0 0 0.120901 0 0 0 0 0.592167 0 0 0 0 0.365959 0 0 0 0.1 0"/>
<feBlend mode="normal" in2="effect2_innerShadow_2_62" result="effect3_innerShadow_2_62"/>
</filter>
<filter id="filter1_b_2_62" x="-19.1333" y="-19.1333" width="254.267" height="109.267" filterUnits="userSpaceOnUse" color-interpolation-filters="sRGB">
<feFlood flood-opacity="0" result="BackgroundImageFix"/>
<feGaussianBlur in="BackgroundImage" stdDeviation="9.56667"/>
<feComposite in2="SourceAlpha" operator="in" result="effect1_backgroundBlur_2_62"/>
<feBlend mode="normal" in="SourceGraphic" in2="effect1_backgroundBlur_2_62" result="shape"/>
</filter>
</defs>
</svg>
