<svg width="216" height="72" viewBox="0 0 216 72" fill="none" xmlns="http://www.w3.org/2000/svg">
<rect width="216" height="71" rx="7" fill="#EA1A4C"/>
<g filter="url(#filter0_bii_2_39)">
<rect y="1" width="216" height="71" rx="7" fill="#EA1A4C" fill-opacity="0.1"/>
</g>
<g filter="url(#filter1_b_2_39)">
<rect width="216" height="71" rx="7" fill="#EA1A4C" fill-opacity="0.1"/>
<rect x="1.435" y="1.435" width="213.13" height="68.13" rx="5.565" stroke="white" stroke-opacity="0.2" stroke-width="2.87"/>
</g>
<path d="M32.5 51.9167C41.0144 51.9167 47.9167 45.0144 47.9167 36.5C47.9167 27.9856 41.0144 21.0833 32.5 21.0833C23.9856 21.0833 17.0833 27.9856 17.0833 36.5C17.0833 45.0144 23.9856 51.9167 32.5 51.9167Z" stroke="white" stroke-width="2" stroke-linecap="round" stroke-linejoin="round"/>
<path d="M37.125 31.875L27.875 41.125" stroke="white" stroke-width="2" stroke-linecap="round" stroke-linejoin="round"/>
<path d="M27.875 31.875L37.125 41.125" stroke="white" stroke-width="2" stroke-linecap="round" stroke-linejoin="round"/>
<path d="M94.0309 42V27.4545H99.1161C100.129 27.4545 100.965 27.6297 101.623 27.9801C102.281 28.3258 102.771 28.7921 103.093 29.3793C103.415 29.9616 103.576 30.608 103.576 31.3182C103.576 31.9432 103.465 32.4593 103.243 32.8665C103.025 33.2737 102.736 33.5956 102.376 33.8324C102.021 34.0691 101.635 34.2443 101.218 34.358V34.5C101.663 34.5284 102.111 34.6847 102.561 34.9688C103.011 35.2528 103.387 35.66 103.69 36.1903C103.993 36.7206 104.145 37.3693 104.145 38.1364C104.145 38.8655 103.979 39.5213 103.647 40.1037C103.316 40.6861 102.793 41.1477 102.078 41.4886C101.363 41.8295 100.432 42 99.2866 42H94.0309ZM95.7923 40.4375H99.2866C100.437 40.4375 101.254 40.215 101.737 39.7699C102.225 39.3201 102.468 38.7756 102.468 38.1364C102.468 37.6439 102.343 37.1894 102.092 36.7727C101.841 36.3513 101.484 36.0152 101.02 35.7642C100.556 35.5085 100.006 35.3807 99.3718 35.3807H95.7923V40.4375ZM95.7923 33.8466H99.0593C99.5896 33.8466 100.068 33.7424 100.494 33.5341C100.925 33.3258 101.266 33.0322 101.517 32.6534C101.772 32.2746 101.9 31.8295 101.9 31.3182C101.9 30.679 101.678 30.1368 101.233 29.6918C100.788 29.242 100.082 29.017 99.1161 29.017H95.7923V33.8466ZM113.686 37.5398V31.0909H115.363V42H113.686V40.1534H113.573C113.317 40.7074 112.919 41.1785 112.38 41.5668C111.84 41.9503 111.158 42.142 110.334 42.142C109.652 42.142 109.046 41.9929 108.516 41.6946C107.986 41.3916 107.569 40.937 107.266 40.331C106.963 39.7202 106.811 38.9508 106.811 38.0227V31.0909H108.488V37.9091C108.488 38.7045 108.71 39.339 109.155 39.8125C109.605 40.286 110.178 40.5227 110.874 40.5227C111.291 40.5227 111.714 40.4162 112.145 40.2031C112.581 39.9901 112.945 39.6634 113.239 39.223C113.537 38.7827 113.686 38.2216 113.686 37.5398ZM118.433 42V31.0909H120.109V42H118.433ZM119.285 29.2727C118.958 29.2727 118.676 29.1615 118.44 28.9389C118.208 28.7164 118.092 28.4489 118.092 28.1364C118.092 27.8239 118.208 27.5563 118.44 27.3338C118.676 27.1113 118.958 27 119.285 27C119.612 27 119.891 27.1113 120.123 27.3338C120.36 27.5563 120.478 27.8239 120.478 28.1364C120.478 28.4489 120.36 28.7164 120.123 28.9389C119.891 29.1615 119.612 29.2727 119.285 29.2727ZM124.855 27.4545V42H123.179V27.4545H124.855ZM132.044 42.2273C131.135 42.2273 130.332 41.9976 129.636 41.5384C128.94 41.0743 128.396 40.4209 128.003 39.5781C127.61 38.7306 127.413 37.7292 127.413 36.5739C127.413 35.428 127.61 34.4337 128.003 33.5909C128.396 32.7481 128.943 32.0971 129.643 31.6378C130.344 31.1785 131.154 30.9489 132.072 30.9489C132.783 30.9489 133.344 31.0672 133.756 31.304C134.172 31.536 134.49 31.8011 134.707 32.0994C134.93 32.393 135.103 32.6345 135.226 32.8239H135.368V27.4545H137.044V42H135.425V40.3239H135.226C135.103 40.5227 134.928 40.7737 134.7 41.0767C134.473 41.375 134.149 41.6425 133.727 41.8793C133.306 42.1113 132.745 42.2273 132.044 42.2273ZM132.271 40.7216C132.944 40.7216 133.512 40.5464 133.976 40.196C134.44 39.8409 134.793 39.3509 135.034 38.7259C135.276 38.0961 135.396 37.3693 135.396 36.5455C135.396 35.7311 135.278 35.0185 135.041 34.4077C134.804 33.7921 134.454 33.3139 133.99 32.973C133.526 32.6274 132.953 32.4545 132.271 32.4545C131.561 32.4545 130.969 32.6368 130.496 33.0014C130.027 33.3613 129.674 33.8513 129.438 34.4716C129.205 35.0871 129.089 35.7784 129.089 36.5455C129.089 37.322 129.208 38.0275 129.445 38.6619C129.686 39.2917 130.041 39.7936 130.51 40.1676C130.983 40.5369 131.571 40.7216 132.271 40.7216ZM146.199 42V27.4545H154.92V29.017H147.96V33.9318H154.267V35.4943H147.96V42H146.199ZM160.92 42.2557C160.229 42.2557 159.601 42.1255 159.038 41.8651C158.475 41.5999 158.027 41.2188 157.696 40.7216C157.364 40.2197 157.199 39.6136 157.199 38.9034C157.199 38.2784 157.322 37.7718 157.568 37.3835C157.814 36.9905 158.143 36.6828 158.555 36.4602C158.967 36.2377 159.422 36.072 159.919 35.9631C160.421 35.8494 160.925 35.7595 161.431 35.6932C162.094 35.608 162.632 35.544 163.044 35.5014C163.46 35.4541 163.763 35.3759 163.953 35.267C164.147 35.1581 164.244 34.9687 164.244 34.6989V34.642C164.244 33.9413 164.052 33.3968 163.669 33.0085C163.29 32.6203 162.715 32.4261 161.943 32.4261C161.143 32.4261 160.515 32.6013 160.061 32.9517C159.606 33.3021 159.287 33.6761 159.102 34.0739L157.511 33.5057C157.795 32.8428 158.174 32.3267 158.647 31.9574C159.126 31.5833 159.646 31.3229 160.21 31.1761C160.778 31.0246 161.337 30.9489 161.886 30.9489C162.236 30.9489 162.639 30.9915 163.093 31.0767C163.553 31.1572 163.995 31.3253 164.422 31.581C164.852 31.8366 165.21 32.2225 165.494 32.7386C165.778 33.2547 165.92 33.946 165.92 34.8125V42H164.244V40.5227H164.159C164.045 40.7595 163.856 41.0128 163.591 41.2827C163.325 41.5526 162.973 41.7822 162.532 41.9716C162.092 42.161 161.555 42.2557 160.92 42.2557ZM161.176 40.75C161.839 40.75 162.397 40.6198 162.852 40.3594C163.311 40.099 163.657 39.7628 163.889 39.3509C164.126 38.9389 164.244 38.5057 164.244 38.0511V36.517C164.173 36.6023 164.017 36.6804 163.775 36.7514C163.538 36.8177 163.264 36.8769 162.951 36.929C162.644 36.9763 162.343 37.0189 162.049 37.0568C161.761 37.09 161.526 37.1184 161.346 37.142C160.911 37.1989 160.503 37.2912 160.125 37.419C159.751 37.5421 159.448 37.7292 159.216 37.9801C158.988 38.2263 158.875 38.5625 158.875 38.9886C158.875 39.571 159.09 40.0114 159.521 40.3097C159.957 40.6032 160.508 40.75 161.176 40.75ZM168.979 42V31.0909H170.656V42H168.979ZM169.832 29.2727C169.505 29.2727 169.223 29.1615 168.987 28.9389C168.754 28.7164 168.638 28.4489 168.638 28.1364C168.638 27.8239 168.754 27.5563 168.987 27.3338C169.223 27.1113 169.505 27 169.832 27C170.158 27 170.438 27.1113 170.67 27.3338C170.906 27.5563 171.025 27.8239 171.025 28.1364C171.025 28.4489 170.906 28.7164 170.67 28.9389C170.438 29.1615 170.158 29.2727 169.832 29.2727ZM175.402 27.4545V42H173.725V27.4545H175.402ZM183.045 42.2273C181.994 42.2273 181.088 41.9953 180.325 41.5312C179.568 41.0625 178.983 40.4091 178.571 39.571C178.164 38.7282 177.96 37.7481 177.96 36.6307C177.96 35.5133 178.164 34.5284 178.571 33.6761C178.983 32.8191 179.556 32.1515 180.29 31.6733C181.028 31.1903 181.89 30.9489 182.875 30.9489C183.443 30.9489 184.004 31.0436 184.558 31.233C185.112 31.4223 185.616 31.7301 186.071 32.1562C186.526 32.5777 186.888 33.1364 187.158 33.8324C187.428 34.5284 187.562 35.3854 187.562 36.4034V37.1136H179.153V35.6648H185.858C185.858 35.0492 185.735 34.5 185.489 34.017C185.247 33.5341 184.902 33.1529 184.452 32.8736C184.007 32.5942 183.481 32.4545 182.875 32.4545C182.207 32.4545 181.63 32.6203 181.142 32.9517C180.659 33.2784 180.287 33.7045 180.027 34.2301C179.767 34.7557 179.636 35.3191 179.636 35.9205V36.8864C179.636 37.7102 179.778 38.4086 180.062 38.9815C180.351 39.5497 180.751 39.983 181.263 40.2812C181.774 40.5748 182.368 40.7216 183.045 40.7216C183.486 40.7216 183.884 40.66 184.239 40.5369C184.598 40.4091 184.909 40.2197 185.169 39.9688C185.429 39.7131 185.631 39.3958 185.773 39.017L187.392 39.4716C187.222 40.0208 186.935 40.5038 186.533 40.9205C186.13 41.3324 185.633 41.6544 185.041 41.8864C184.449 42.1136 183.784 42.2273 183.045 42.2273ZM194.232 42.2273C193.322 42.2273 192.52 41.9976 191.824 41.5384C191.128 41.0743 190.583 40.4209 190.19 39.5781C189.797 38.7306 189.601 37.7292 189.601 36.5739C189.601 35.428 189.797 34.4337 190.19 33.5909C190.583 32.7481 191.13 32.0971 191.831 31.6378C192.532 31.1785 193.341 30.9489 194.26 30.9489C194.97 30.9489 195.531 31.0672 195.943 31.304C196.36 31.536 196.677 31.8011 196.895 32.0994C197.117 32.393 197.29 32.6345 197.413 32.8239H197.555V27.4545H199.232V42H197.612V40.3239H197.413C197.29 40.5227 197.115 40.7737 196.888 41.0767C196.661 41.375 196.336 41.6425 195.915 41.8793C195.493 42.1113 194.932 42.2273 194.232 42.2273ZM194.459 40.7216C195.131 40.7216 195.699 40.5464 196.163 40.196C196.627 39.8409 196.98 39.3509 197.222 38.7259C197.463 38.0961 197.584 37.3693 197.584 36.5455C197.584 35.7311 197.465 35.0185 197.229 34.4077C196.992 33.7921 196.642 33.3139 196.178 32.973C195.714 32.6274 195.141 32.4545 194.459 32.4545C193.749 32.4545 193.157 32.6368 192.683 33.0014C192.214 33.3613 191.862 33.8513 191.625 34.4716C191.393 35.0871 191.277 35.7784 191.277 36.5455C191.277 37.322 191.395 38.0275 191.632 38.6619C191.874 39.2917 192.229 39.7936 192.697 40.1676C193.171 40.5369 193.758 40.7216 194.459 40.7216Z" fill="white"/>
<defs>
<filter id="filter0_bii_2_39" x="-19.1333" y="-18.1333" width="254.267" height="109.267" filterUnits="userSpaceOnUse" color-interpolation-filters="sRGB">
<feFlood flood-opacity="0" result="BackgroundImageFix"/>
<feGaussianBlur in="BackgroundImage" stdDeviation="9.56667"/>
<feComposite in2="SourceAlpha" operator="in" result="effect1_backgroundBlur_2_39"/>
<feBlend mode="normal" in="SourceGraphic" in2="effect1_backgroundBlur_2_39" result="shape"/>
<feColorMatrix in="SourceAlpha" type="matrix" values="0 0 0 0 0 0 0 0 0 0 0 0 0 0 0 0 0 0 127 0" result="hardAlpha"/>
<feOffset dx="-9.56667" dy="9.56667"/>
<feGaussianBlur stdDeviation="4.78333"/>
<feComposite in2="hardAlpha" operator="arithmetic" k2="-1" k3="1"/>
<feColorMatrix type="matrix" values="0 0 0 0 1 0 0 0 0 1 0 0 0 0 1 0 0 0 0.1 0"/>
<feBlend mode="normal" in2="shape" result="effect2_innerShadow_2_39"/>
<feColorMatrix in="SourceAlpha" type="matrix" values="0 0 0 0 0 0 0 0 0 0 0 0 0 0 0 0 0 0 127 0" result="hardAlpha"/>
<feOffset dx="9.56667" dy="-9.56667"/>
<feGaussianBlur stdDeviation="4.78333"/>
<feComposite in2="hardAlpha" operator="arithmetic" k2="-1" k3="1"/>
<feColorMatrix type="matrix" values="0 0 0 0 0.120901 0 0 0 0 0.592167 0 0 0 0 0.365959 0 0 0 0.1 0"/>
<feBlend mode="normal" in2="effect2_innerShadow_2_39" result="effect3_innerShadow_2_39"/>
</filter>
<filter id="filter1_b_2_39" x="-19.1333" y="-19.1333" width="254.267" height="109.267" filterUnits="userSpaceOnUse" color-interpolation-filters="sRGB">
<feFlood flood-opacity="0" result="BackgroundImageFix"/>
<feGaussianBlur in="BackgroundImage" stdDeviation="9.56667"/>
<feComposite in2="SourceAlpha" operator="in" result="effect1_backgroundBlur_2_39"/>
<feBlend mode="normal" in="SourceGraphic" in2="effect1_backgroundBlur_2_39" result="shape"/>
</filter>
</defs>
</svg>
