<svg width="162" height="24" viewBox="0 0 162 24" fill="none" xmlns="http://www.w3.org/2000/svg">
<g clip-path="url(#clip0_2_5)">
<path d="M16 22V18.13C16.0375 17.6532 15.9731 17.1738 15.811 16.7238C15.6489 16.2738 15.3929 15.8634 15.06 15.52C18.2 15.17 21.5 13.98 21.5 8.52C21.4997 7.12383 20.9627 5.7812 20 4.77C20.4559 3.54851 20.4236 2.19835 19.91 0.999999C19.91 0.999999 18.73 0.649999 16 2.48C13.708 1.85882 11.292 1.85882 9 2.48C6.27 0.649999 5.09 0.999999 5.09 0.999999C4.57638 2.19835 4.54414 3.54851 5 4.77C4.03013 5.7887 3.49252 7.14346 3.5 8.55C3.5 13.97 6.8 15.16 9.94 15.55C9.611 15.89 9.35726 16.2954 9.19531 16.7399C9.03335 17.1844 8.96681 17.6581 9 18.13V22M9 19C4 20.5 4 16.5 2 16L9 19Z" stroke="black" stroke-width="2" stroke-linecap="round" stroke-linejoin="round"/>
</g>
<path d="M48.3381 19.3636C47.179 19.3636 46.1544 19.2045 45.2642 18.8864C44.3741 18.572 43.6259 18.108 43.0199 17.4943C42.4138 16.8807 41.9555 16.1288 41.6449 15.2386C41.3343 14.3485 41.179 13.3295 41.179 12.1818C41.179 11.072 41.3362 10.0795 41.6506 9.20455C41.9688 8.32955 42.429 7.58712 43.0312 6.97727C43.6373 6.36364 44.3722 5.89583 45.2358 5.57386C46.1032 5.25189 47.0843 5.09091 48.179 5.09091C49.2434 5.09091 50.1752 5.26515 50.9744 5.61364C51.7775 5.95833 52.4479 6.42614 52.9858 7.01705C53.5275 7.60417 53.9328 8.26515 54.2017 9C54.4744 9.73485 54.6108 10.4924 54.6108 11.2727C54.6108 11.822 54.5843 12.3788 54.5312 12.9432C54.4782 13.5076 54.3665 14.0265 54.196 14.5C54.0256 14.9697 53.7623 15.3485 53.4062 15.6364C53.054 15.9242 52.5767 16.0682 51.9744 16.0682C51.7093 16.0682 51.4176 16.0265 51.0994 15.9432C50.7812 15.8598 50.4991 15.7216 50.2528 15.5284C50.0066 15.3352 49.8608 15.0758 49.8153 14.75H49.7472C49.6563 14.9697 49.5161 15.178 49.3267 15.375C49.1411 15.572 48.8968 15.7292 48.5938 15.8466C48.2945 15.964 47.929 16.0152 47.4972 16C47.0047 15.9811 46.571 15.8712 46.196 15.6705C45.821 15.4659 45.5066 15.1894 45.2528 14.8409C45.0028 14.4886 44.8134 14.0814 44.6847 13.6193C44.5597 13.1534 44.4972 12.6515 44.4972 12.1136C44.4972 11.6023 44.5729 11.1345 44.7244 10.7102C44.8759 10.286 45.0862 9.91477 45.3551 9.59659C45.6278 9.27841 45.946 9.02462 46.3097 8.83523C46.6771 8.64205 47.0729 8.52273 47.4972 8.47727C47.8759 8.43939 48.2206 8.45644 48.5312 8.52841C48.8419 8.59659 49.0975 8.70076 49.2983 8.84091C49.4991 8.97727 49.6259 9.12879 49.679 9.29545H49.7472V8.65909H50.9517V13.7955C50.9517 14.1136 51.0407 14.3939 51.2188 14.6364C51.3968 14.8788 51.6563 15 51.9972 15C52.3835 15 52.679 14.8674 52.8835 14.6023C53.0919 14.3371 53.2339 13.928 53.3097 13.375C53.3892 12.822 53.429 12.1136 53.429 11.25C53.429 10.7424 53.3589 10.2424 53.2188 9.75C53.0824 9.25379 52.8741 8.78977 52.5938 8.35795C52.3172 7.92614 51.9669 7.54545 51.5426 7.21591C51.1184 6.88636 50.6203 6.62879 50.0483 6.44318C49.4801 6.25379 48.8343 6.15909 48.1108 6.15909C47.2206 6.15909 46.4233 6.29735 45.7188 6.57386C45.018 6.84659 44.4214 7.24621 43.929 7.77273C43.4403 8.29545 43.0672 8.93182 42.8097 9.68182C42.5559 10.428 42.429 11.2765 42.429 12.2273C42.429 13.1932 42.5559 14.0511 42.8097 14.8011C43.0672 15.5511 43.446 16.1837 43.946 16.6989C44.4498 17.214 45.0729 17.6061 45.8153 17.875C46.5578 18.1402 47.4138 18.2727 48.3835 18.2727C48.8002 18.2727 49.2112 18.233 49.6165 18.1534C50.0218 18.0739 50.3797 17.9867 50.6903 17.892C51.0009 17.7973 51.2244 17.7273 51.3608 17.6818L51.679 18.7273C51.4441 18.8258 51.1373 18.9242 50.7585 19.0227C50.3835 19.1212 49.982 19.2027 49.554 19.267C49.1297 19.3314 48.7244 19.3636 48.3381 19.3636ZM47.679 14.8409C48.1866 14.8409 48.5975 14.7386 48.9119 14.5341C49.2263 14.3295 49.4555 14.0208 49.5994 13.608C49.7434 13.1951 49.8153 12.6742 49.8153 12.0455C49.8153 11.4091 49.7358 10.9129 49.5767 10.5568C49.4176 10.2008 49.1828 9.95076 48.8722 9.80682C48.5616 9.66288 48.179 9.59091 47.7244 9.59091C47.2926 9.59091 46.9233 9.70455 46.6165 9.93182C46.3134 10.1553 46.0805 10.4545 45.9176 10.8295C45.7585 11.2008 45.679 11.6061 45.679 12.0455C45.679 12.5303 45.7434 12.9867 45.8722 13.4148C46.0009 13.839 46.2112 14.1837 46.5028 14.4489C46.7945 14.7102 47.1866 14.8409 47.679 14.8409ZM56.7997 18V6.36364H60.8679C61.6785 6.36364 62.3471 6.50379 62.8736 6.78409C63.4001 7.06061 63.7921 7.43371 64.0497 7.90341C64.3073 8.36932 64.4361 8.88636 64.4361 9.45455C64.4361 9.95455 64.3471 10.3674 64.169 10.6932C63.9948 11.0189 63.7637 11.2765 63.4759 11.4659C63.1918 11.6553 62.883 11.7955 62.5497 11.8864V12C62.9058 12.0227 63.2637 12.1477 63.6236 12.375C63.9834 12.6023 64.2846 12.928 64.527 13.3523C64.7694 13.7765 64.8906 14.2955 64.8906 14.9091C64.8906 15.4924 64.758 16.017 64.4929 16.483C64.2277 16.9489 63.8092 17.3182 63.2372 17.5909C62.6652 17.8636 61.9209 18 61.0043 18H56.7997ZM58.2088 16.75H61.0043C61.9247 16.75 62.5781 16.572 62.9645 16.2159C63.3546 15.8561 63.5497 15.4205 63.5497 14.9091C63.5497 14.5152 63.4493 14.1515 63.2486 13.8182C63.0478 13.4811 62.7618 13.2121 62.3906 13.0114C62.0194 12.8068 61.58 12.7045 61.0724 12.7045H58.2088V16.75ZM58.2088 11.4773H60.8224C61.2467 11.4773 61.6293 11.3939 61.9702 11.2273C62.3149 11.0606 62.5876 10.8258 62.7884 10.5227C62.9929 10.2197 63.0952 9.86364 63.0952 9.45455C63.0952 8.94318 62.9171 8.50947 62.5611 8.15341C62.205 7.79356 61.6406 7.61364 60.8679 7.61364H58.2088V11.4773ZM68.3651 6.36364V18H67.0241V6.36364H68.3651ZM76.321 14.4318V9.27273H77.6619V18H76.321V16.5227H76.2301C76.0256 16.9659 75.7074 17.3428 75.2756 17.6534C74.8438 17.9602 74.2983 18.1136 73.6392 18.1136C73.0938 18.1136 72.6089 17.9943 72.1847 17.7557C71.7604 17.5133 71.4271 17.1496 71.1847 16.6648C70.9422 16.1761 70.821 15.5606 70.821 14.8182V9.27273H72.1619V14.7273C72.1619 15.3636 72.34 15.8712 72.696 16.25C73.0559 16.6288 73.5142 16.8182 74.071 16.8182C74.4044 16.8182 74.7434 16.733 75.0881 16.5625C75.4366 16.392 75.7282 16.1307 75.9631 15.7784C76.2017 15.4261 76.321 14.9773 76.321 14.4318ZM83.777 18.1818C82.9361 18.1818 82.2107 17.9962 81.6009 17.625C80.9948 17.25 80.527 16.7273 80.1974 16.0568C79.8717 15.3826 79.7088 14.5985 79.7088 13.7045C79.7088 12.8106 79.8717 12.0227 80.1974 11.3409C80.527 10.6553 80.9853 10.1212 81.5724 9.73864C82.1634 9.35227 82.8527 9.15909 83.6406 9.15909C84.0952 9.15909 84.544 9.23485 84.9872 9.38636C85.4304 9.53788 85.8338 9.78409 86.1974 10.125C86.5611 10.4621 86.8509 10.9091 87.0668 11.4659C87.2827 12.0227 87.3906 12.7083 87.3906 13.5227V14.0909H80.6634V12.9318H86.027C86.027 12.4394 85.9285 12 85.7315 11.6136C85.5384 11.2273 85.2618 10.9223 84.902 10.6989C84.5459 10.4754 84.1255 10.3636 83.6406 10.3636C83.1065 10.3636 82.6444 10.4962 82.2543 10.7614C81.8679 11.0227 81.5705 11.3636 81.3622 11.7841C81.1539 12.2045 81.0497 12.6553 81.0497 13.1364V13.9091C81.0497 14.5682 81.1634 15.1269 81.3906 15.5852C81.6217 16.0398 81.9418 16.3864 82.3509 16.625C82.7599 16.8598 83.2353 16.9773 83.777 16.9773C84.1293 16.9773 84.4474 16.928 84.7315 16.8295C85.0194 16.7273 85.2675 16.5758 85.4759 16.375C85.6842 16.1705 85.8452 15.9167 85.9588 15.6136L87.2543 15.9773C87.1179 16.4167 86.8887 16.803 86.5668 17.1364C86.2448 17.4659 85.8471 17.7235 85.3736 17.9091C84.9001 18.0909 84.3679 18.1818 83.777 18.1818ZM89.6122 18V6.36364H96.5895V7.61364H91.0213V11.5455H96.0668V12.7955H91.0213V18H89.6122ZM101.389 18.2045C100.836 18.2045 100.334 18.1004 99.8835 17.892C99.4328 17.6799 99.0748 17.375 98.8097 16.9773C98.5445 16.5758 98.4119 16.0909 98.4119 15.5227C98.4119 15.0227 98.5104 14.6174 98.7074 14.3068C98.9044 13.9924 99.1676 13.7462 99.4972 13.5682C99.8267 13.3902 100.19 13.2576 100.588 13.1705C100.99 13.0795 101.393 13.0076 101.798 12.9545C102.329 12.8864 102.759 12.8352 103.088 12.8011C103.421 12.7633 103.664 12.7008 103.815 12.6136C103.971 12.5265 104.048 12.375 104.048 12.1591V12.1136C104.048 11.553 103.895 11.1174 103.588 10.8068C103.285 10.4962 102.825 10.3409 102.207 10.3409C101.567 10.3409 101.065 10.4811 100.702 10.7614C100.338 11.0417 100.082 11.3409 99.9347 11.6591L98.6619 11.2045C98.8892 10.6742 99.1922 10.2614 99.571 9.96591C99.9536 9.66667 100.37 9.45833 100.821 9.34091C101.276 9.2197 101.723 9.15909 102.162 9.15909C102.442 9.15909 102.764 9.19318 103.128 9.26136C103.495 9.32576 103.849 9.46023 104.19 9.66477C104.535 9.86932 104.821 10.178 105.048 10.5909C105.276 11.0038 105.389 11.5568 105.389 12.25V18H104.048V16.8182H103.98C103.889 17.0076 103.738 17.2102 103.526 17.4261C103.313 17.642 103.031 17.8258 102.679 17.9773C102.327 18.1288 101.897 18.2045 101.389 18.2045ZM101.594 17C102.124 17 102.571 16.8958 102.935 16.6875C103.302 16.4792 103.579 16.2102 103.764 15.8807C103.954 15.5511 104.048 15.2045 104.048 14.8409V13.6136C103.991 13.6818 103.866 13.7443 103.673 13.8011C103.484 13.8542 103.264 13.9015 103.014 13.9432C102.768 13.9811 102.527 14.0152 102.293 14.0455C102.062 14.072 101.874 14.0947 101.73 14.1136C101.382 14.1591 101.056 14.233 100.753 14.3352C100.454 14.4337 100.211 14.5833 100.026 14.7841C99.8438 14.9811 99.7528 15.25 99.7528 15.5909C99.7528 16.0568 99.9252 16.4091 100.27 16.6477C100.618 16.8826 101.06 17 101.594 17ZM109.178 6.36364V18H107.837V6.36364H109.178ZM115.179 18.1818C114.361 18.1818 113.656 17.9886 113.065 17.6023C112.474 17.2159 112.02 16.6837 111.702 16.0057C111.384 15.3277 111.224 14.553 111.224 13.6818C111.224 12.7955 111.387 12.0133 111.713 11.3352C112.043 10.6534 112.501 10.1212 113.088 9.73864C113.679 9.35227 114.368 9.15909 115.156 9.15909C115.77 9.15909 116.323 9.27273 116.815 9.5C117.308 9.72727 117.711 10.0455 118.026 10.4545C118.34 10.8636 118.535 11.3409 118.611 11.8864H117.27C117.168 11.4886 116.94 11.1364 116.588 10.8295C116.24 10.5189 115.77 10.3636 115.179 10.3636C114.656 10.3636 114.198 10.5 113.804 10.7727C113.414 11.0417 113.109 11.4223 112.889 11.9148C112.673 12.4034 112.565 12.9773 112.565 13.6364C112.565 14.3106 112.671 14.8977 112.884 15.3977C113.099 15.8977 113.402 16.286 113.793 16.5625C114.187 16.839 114.649 16.9773 115.179 16.9773C115.527 16.9773 115.844 16.9167 116.128 16.7955C116.412 16.6742 116.652 16.5 116.849 16.2727C117.046 16.0455 117.187 15.7727 117.27 15.4545H118.611C118.535 15.9697 118.348 16.4337 118.048 16.8466C117.753 17.2557 117.361 17.5814 116.872 17.8239C116.387 18.0625 115.823 18.1818 115.179 18.1818ZM124.116 18.1818C123.329 18.1818 122.637 17.9943 122.043 17.6193C121.452 17.2443 120.99 16.7197 120.656 16.0455C120.327 15.3712 120.162 14.5833 120.162 13.6818C120.162 12.7727 120.327 11.9792 120.656 11.3011C120.99 10.6231 121.452 10.0966 122.043 9.72159C122.637 9.34659 123.329 9.15909 124.116 9.15909C124.904 9.15909 125.594 9.34659 126.185 9.72159C126.779 10.0966 127.241 10.6231 127.571 11.3011C127.904 11.9792 128.071 12.7727 128.071 13.6818C128.071 14.5833 127.904 15.3712 127.571 16.0455C127.241 16.7197 126.779 17.2443 126.185 17.6193C125.594 17.9943 124.904 18.1818 124.116 18.1818ZM124.116 16.9773C124.715 16.9773 125.207 16.8239 125.594 16.517C125.98 16.2102 126.266 15.8068 126.452 15.3068C126.637 14.8068 126.73 14.2652 126.73 13.6818C126.73 13.0985 126.637 12.5549 126.452 12.0511C126.266 11.5473 125.98 11.1402 125.594 10.8295C125.207 10.5189 124.715 10.3636 124.116 10.3636C123.518 10.3636 123.026 10.5189 122.639 10.8295C122.253 11.1402 121.967 11.5473 121.781 12.0511C121.596 12.5549 121.503 13.0985 121.503 13.6818C121.503 14.2652 121.596 14.8068 121.781 15.3068C121.967 15.8068 122.253 16.2102 122.639 16.517C123.026 16.8239 123.518 16.9773 124.116 16.9773ZM131.459 12.75V18H130.118V9.27273H131.413V10.6364H131.527C131.732 10.1932 132.042 9.83712 132.459 9.56818C132.875 9.29545 133.413 9.15909 134.072 9.15909C134.663 9.15909 135.18 9.2803 135.624 9.52273C136.067 9.76136 136.411 10.125 136.658 10.6136C136.904 11.0985 137.027 11.7121 137.027 12.4545V18H135.686V12.5455C135.686 11.8598 135.508 11.3258 135.152 10.9432C134.796 10.5568 134.307 10.3636 133.686 10.3636C133.258 10.3636 132.875 10.4564 132.538 10.642C132.205 10.8277 131.942 11.0985 131.749 11.4545C131.555 11.8106 131.459 12.2424 131.459 12.75ZM139.659 18V6.36364H141.068V11.5455H147.273V6.36364H148.682V18H147.273V12.7955H141.068V18H139.659ZM155.094 18H151.503V6.36364H155.253C156.382 6.36364 157.348 6.59659 158.151 7.0625C158.954 7.52462 159.569 8.18939 159.997 9.05682C160.425 9.92045 160.639 10.9545 160.639 12.1591C160.639 13.3712 160.423 14.4148 159.991 15.2898C159.56 16.161 158.931 16.8314 158.105 17.3011C157.279 17.767 156.276 18 155.094 18ZM152.912 16.75H155.003C155.965 16.75 156.762 16.5644 157.395 16.1932C158.027 15.822 158.499 15.2936 158.81 14.608C159.12 13.9223 159.276 13.1061 159.276 12.1591C159.276 11.2197 159.122 10.411 158.815 9.73295C158.509 9.05114 158.05 8.52841 157.44 8.16477C156.83 7.79735 156.071 7.61364 155.162 7.61364H152.912V16.75Z" fill="black"/>
<defs>
<clipPath id="clip0_2_5">
<rect width="24" height="24" fill="white"/>
</clipPath>
</defs>
</svg>
